<mxfile host="app.diagrams.net" modified="2023-11-04T14:46:21.536Z" agent="Mozilla/5.0 (Macintosh; Intel Mac OS X 10_15_7) AppleWebKit/537.36 (KHTML, like Gecko) Chrome/116.0.0.0 Safari/537.36" version="21.1.1" etag="glbgoXu0jIHpfASJ0tJR" type="github">
  <diagram name="Strona-1" id="R4yWBhzJ9ERMTkOhNeHf">
    <mxGraphModel>
      <root>
        <mxCell id="0" />
        <mxCell id="1" parent="0" />
      </root>
    </mxGraphModel>
  </diagram>
</mxfile>
